<svg width="50" height="50" viewBox="0 0 126 123" fill="none" xmlns="http://www.w3.org/2000/svg">
<rect x="1.5" y="1.5" width="123" height="120" rx="18.5" stroke="white" stroke-width="3"/>
<path fill-rule="evenodd" clip-rule="evenodd" d="M44.5275 67.5245C44.3759 70.4041 45.1186 77.5272 49.3015 82.9832C54.5302 89.8033 63.6234 97.9873 79.7641 97.76C95.9048 97.5326 111.364 83.6652 111.818 67.0698C112.211 52.7247 101.223 44.3248 91.4823 36.8778C89.9542 35.7097 88.4568 34.5649 87.0388 33.4244C78.6729 26.6953 71.7316 21.5272 69.3067 19.7843C68.1701 19.1023 65.1693 18.2384 62.2594 20.239C59.3495 22.2395 60.2891 25.013 61.1227 26.1497L73.3987 35.6977H35.4339C33.3121 35.8493 28.9322 37.1982 28.3866 41.3811C27.7046 46.6098 34.2973 47.2918 37.4799 47.2918H52.7115L19.2934 71.8439C16.7169 73.9656 12.6097 79.164 16.7927 82.9832C20.9171 86.749 27.9588 80.8785 32.0776 77.4446C32.1361 77.3959 32.1939 77.3476 32.2512 77.2999C36.3432 73.8899 44.5275 67.5245 44.5275 67.5245ZM77.9716 83.1083C89.3969 83.1083 98.659 74.7622 98.659 64.4668C98.659 54.1715 89.3969 45.8254 77.9716 45.8254C66.5462 45.8254 57.2842 54.1715 57.2842 64.4668C57.2842 74.7622 66.5462 83.1083 77.9716 83.1083Z" fill="white"/>
<ellipse cx="77.9316" cy="62.7646" rx="12" ry="11" fill="white"/>
</svg>
