<svg width="50" height="50" viewBox="0 0 126 123" fill="none" xmlns="http://www.w3.org/2000/svg">
<rect x="1.5" y="1.5" width="123" height="120" rx="18.5" stroke="white" stroke-width="3"/>
<path d="M65 21H49C44.8333 21.8333 36.5 25.6 36.5 34C36.5 44.5 44.5 48.5 48 49" stroke="white" stroke-width="5"/>
<path d="M65 21H80C83.8333 21.1667 91.9 23.8 93.5 33C95.5 44.5 84 48.5 81 48.5C78.6 48.5 69.3333 48.5 65 48.5" stroke="white" stroke-width="5"/>
<path d="M78.9996 48.5C68.5996 48.5 65.333 58.1667 64.9996 63C64.833 67.6667 67.3996 77 78.9996 77C90.5996 77 93.4996 67 93.4996 62C92.9996 57.5 89.3996 48.5 78.9996 48.5Z" stroke="white" stroke-width="5"/>
<path d="M65.0012 21V77M65.0012 77V78V92C64.3345 96.8333 60.2012 106.2 49.0012 105C35.0012 103.5 34.5022 86 40.5012 82C40.5012 82 45 77 55.0015 77C65.003 77 65.5013 77 65.0012 77Z" stroke="white" stroke-width="5"/>
<path d="M65 49H48.5C44.5 49.8333 36.6 53.6 37 62C37.5 72.5 41 74.5 48 76.5L53 77" stroke="white" stroke-width="5"/>
<rect x="1.5" y="1.5" width="123" height="120" rx="18.5" stroke="white" stroke-width="3"/>
<path d="M65 21H49C44.8333 21.8333 36.5 25.6 36.5 34C36.5 44.5 44.5 48.5 48 49" stroke="white" stroke-width="5"/>
<path d="M65 21H80C83.8333 21.1667 91.9 23.8 93.5 33C95.5 44.5 84 48.5 81 48.5C78.6 48.5 69.3333 48.5 65 48.5" stroke="white" stroke-width="5"/>
<path d="M78.9996 48.5C68.5996 48.5 65.333 58.1667 64.9996 63C64.833 67.6667 67.3996 77 78.9996 77C90.5996 77 93.4996 67 93.4996 62C92.9996 57.5 89.3996 48.5 78.9996 48.5Z" stroke="white" stroke-width="5"/>
<path d="M65.0012 21V77M65.0012 77V78V92C64.3345 96.8333 60.2012 106.2 49.0012 105C35.0012 103.5 34.5022 86 40.5012 82C40.5012 82 45 77 55.0015 77C65.003 77 65.5013 77 65.0012 77Z" stroke="white" stroke-width="5"/>
<path d="M65 49H48.5C44.5 49.8333 36.6 53.6 37 62C37.5 72.5 41 74.5 48 76.5L53 77" stroke="white" stroke-width="5"/>
</svg>
