<svg width="50" height="50" viewBox="0 0 126 123" fill="none" xmlns="http://www.w3.org/2000/svg">
<rect x="1.5" y="1.5" width="123" height="120" rx="18.5" stroke="white" stroke-width="3"/>
<path d="M23.8 88L44.6 33.6H56.36L77 87.36L64.68 88.8L60.28 76.24H40.52L36.28 88H23.8ZM44.04 66.32H56.6L50.2 49.44L44.04 66.32ZM95.1256 36.96C95.1256 38.8267 94.4323 40.4533 93.0456 41.84C91.7123 43.1733 90.0856 43.84 88.1656 43.84C86.299 43.84 84.6723 43.1733 83.2856 41.84C81.9523 40.4533 81.2856 38.8267 81.2856 36.96C81.2856 35.04 81.9523 33.4133 83.2856 32.08C84.6723 30.6933 86.299 30 88.1656 30C90.0856 30 91.7123 30.6933 93.0456 32.08C94.4323 33.4133 95.1256 35.04 95.1256 36.96ZM94.4856 49.2V88H81.9256V49.2H94.4856Z" fill="white"/>
</svg>
