<svg width="50" height="50" viewBox="0 0 126 123" fill="none" xmlns="http://www.w3.org/2000/svg">
<rect x="1.5" y="1.5" width="123" height="120" rx="18.5" stroke="white" stroke-width="3"/>
<path d="M45.04 33.6V88H32.56V33.6H45.04ZM92.9031 88H86.5031L84.1831 84.88C82.5831 86.1067 80.8498 87.0933 78.9831 87.84C77.1165 88.5333 75.1965 88.88 73.2231 88.88C67.1965 88.88 62.3965 87.12 58.8231 83.6C55.2498 80.08 53.4631 75.0933 53.4631 68.64C53.4631 62.1867 55.2765 57.1467 58.9031 53.52C62.5298 49.84 67.4631 48 73.7031 48C75.8898 48 78.1031 48.5333 80.3431 49.6V32.4L92.9031 31.52V88ZM74.5831 78.88C76.3431 78.88 78.2631 78.1333 80.3431 76.64V60.08C78.4231 58.7467 76.3965 58.08 74.2631 58.08C71.9165 58.08 70.0231 59.04 68.5831 60.96C67.1431 62.88 66.4231 65.4133 66.4231 68.56C66.4231 71.76 67.1431 74.2933 68.5831 76.16C70.0231 77.9733 72.0231 78.88 74.5831 78.88Z" fill="white"/>
</svg>
