<svg width="50" height="50" viewBox="0 0 126 123" fill="none" xmlns="http://www.w3.org/2000/svg">
<rect x="1.5" y="1.5" width="123" height="120" rx="18.5" stroke="white" stroke-width="3"/>
<path fill-rule="evenodd" clip-rule="evenodd" d="M28 35.7184V90H40.1739V74.2408H40.1741C49.4495 74.2408 68 74.2408 68 53.2286C68 32.2163 41.3337 34.551 28.0003 35.7183L28 35.7184ZM40.002 45.0182C40.002 45.0182 40.0038 59.0183 40.002 63.0183C40.002 63.0183 56.502 64.8926 56.502 54.5182C56.502 44.8871 48.7452 44.9508 41.633 45.0092C41.0842 45.0137 40.5392 45.0182 40.002 45.0182Z" fill="white"/>
<path d="M80.4998 47.8635C87.6998 44.2635 97.8331 46.6968 102 48.3635V58.3635C101 57.8635 97.9 56.6635 93.5 55.8635C88 54.8635 85 55.8635 84.5 57.8635C84 59.8635 87.5 61.8635 89 62.3635C90.5 62.8635 98 65.3635 101 68.3635C104 71.3635 108 82.3635 98 87.3635C87.2 92.1635 77.5 89.0302 74 86.8635V76.8635C77.5 79.3635 91.5 81.8635 92.5 78.3635C93.5 74.8635 88 73.3635 81.9998 70.8635C70.9998 65.8635 71.4998 52.3635 80.4998 47.8635Z" fill="white" stroke="white" stroke-width="0.5"/>
</svg>
