<svg width="50" height="50" viewBox="0 0 127 123" fill="none" xmlns="http://www.w3.org/2000/svg">
<rect x="1.5" y="1.5" width="123" height="120" rx="18.5" stroke="white" stroke-width="3"/>
<path d="M41.04 70.4L28.8 88H14.8L33.76 60.72L16.08 35.84L28.48 31.76L41.52 50.88L52.8 33.6H67.28L48.72 60.64L66.8 88H52L41.04 70.4ZM109.341 88H102.941L100.621 84.88C99.0206 86.1067 97.2873 87.0933 95.4206 87.84C93.554 88.5333 91.634 88.88 89.6606 88.88C83.634 88.88 78.834 87.12 75.2606 83.6C71.6873 80.08 69.9006 75.0933 69.9006 68.64C69.9006 62.1867 71.714 57.1467 75.3406 53.52C78.9673 49.84 83.9006 48 90.1406 48C92.3273 48 94.5406 48.5333 96.7806 49.6V32.4L109.341 31.52V88ZM91.0206 78.88C92.7806 78.88 94.7006 78.1333 96.7806 76.64V60.08C94.8606 58.7467 92.834 58.08 90.7006 58.08C88.354 58.08 86.4606 59.04 85.0206 60.96C83.5806 62.88 82.8606 65.4133 82.8606 68.56C82.8606 71.76 83.5806 74.2933 85.0206 76.16C86.4606 77.9733 88.4606 78.88 91.0206 78.88Z" fill="white"/>
</svg>
